<svg xmlns="http://www.w3.org/2000/svg" class="mb-1" width="37" height="30" viewBox="0 0 37 30" enable-background="new 0 0 37 30" xml:space="preserve" fill="#000000">
            <g>
            <circle cx="15" cy="4.084" r="0.583"></circle>
            <path d="M18.5,10.501c-0.25,0-0.519-0.157-0.757-0.441c-0.208-0.247-0.576-0.279-0.822-0.071
                  c-0.246,0.207-0.278,0.575-0.072,0.821c0.313,0.371,0.679,0.63,1.069,0.76v0.681c0,0.322,0.26,0.583,0.583,0.583
                  s0.583-0.261,0.583-0.583v-0.684c0.68-0.241,1.167-0.89,1.167-1.649c0-0.965-0.785-1.75-1.75-1.75
                  c-0.321,0-0.583-0.262-0.583-0.583S18.179,7,18.5,7c0.206,0,0.424,0.105,0.63,0.305c0.232,0.224,0.602,0.218,0.826-0.014
                  c0.224-0.231,0.218-0.601-0.013-0.825c-0.298-0.287-0.593-0.448-0.86-0.537V5.25c0-0.322-0.261-0.583-0.583-0.583
                  s-0.583,0.261-0.583,0.583v0.684c-0.68,0.241-1.167,0.89-1.167,1.65c0,0.965,0.785,1.75,1.75,1.75c0.321,0,0.583,0.262,0.583,0.584
                  C19.083,10.239,18.821,10.501,18.5,10.501z"></path>
            <path d="M31.101,8.518c-1.286,0-2.333,1.047-2.333,2.333v4.158c-0.775-0.2-1.63,0.006-2.234,0.609l-3.911,3.912
                  c-0.552,0.551-0.855,1.284-0.855,2.063v3.433h-0.583c-0.323,0-0.583,0.262-0.583,0.583v3.677c0,0.321,0.26,0.583,0.583,0.583h8.167
                  c0.323,0,0.585-0.262,0.585-0.583v-3.677c0-0.321-0.262-0.583-0.585-0.583h-0.583v-0.275c0-0.152,0.063-0.303,0.171-0.412
                  l3.642-3.642c0.551-0.551,0.854-1.284,0.854-2.063v-7.784C33.435,9.564,32.388,8.518,31.101,8.518z M28.768,28.701h-7.001v-2.507
                  h7.001V28.701z M32.268,18.635c0,0.467-0.182,0.907-0.513,1.238l-3.642,3.642c-0.325,0.325-0.514,0.776-0.514,1.236v0.275h-4.665
                  v-3.433c0-0.468,0.182-0.908,0.512-1.239l3.913-3.912c0.438-0.437,1.141-0.457,1.602-0.044c0.003,0.002,0.007,0.006,0.01,0.008
                  c0.013,0.012,0.025,0.023,0.039,0.038c0.22,0.22,0.341,0.511,0.341,0.824c0,0.312-0.121,0.604-0.341,0.824l-2.899,2.898
                  c-0.228,0.228-0.228,0.599,0,0.826c0.228,0.227,0.597,0.227,0.825,0l2.898-2.899c0.441-0.44,0.684-1.027,0.684-1.649
                  c0-0.575-0.206-1.116-0.582-1.543v-4.875c0-0.643,0.522-1.166,1.165-1.166c0.645,0,1.167,0.523,1.167,1.166V18.635z"></path>
            <path d="M15.816,25.026h-0.583v-3.433c0-0.779-0.303-1.513-0.854-2.063l-3.913-3.912
                  c-0.603-0.604-1.458-0.809-2.233-0.609v-4.158c0-1.286-1.046-2.333-2.333-2.333c-1.287,0-2.333,1.047-2.333,2.333v7.784
                  c0,0.778,0.303,1.512,0.854,2.063l3.642,3.642c0.108,0.109,0.171,0.26,0.171,0.412v0.275H7.649c-0.322,0-0.583,0.262-0.583,0.583
                  v3.677c0,0.321,0.261,0.583,0.583,0.583h8.167c0.323,0,0.583-0.262,0.583-0.583v-3.677C16.4,25.288,16.139,25.026,15.816,25.026z
                  M5.245,19.873c-0.331-0.331-0.513-0.771-0.513-1.238v-7.784c0-0.643,0.523-1.166,1.167-1.166s1.167,0.523,1.167,1.166v4.875
                  c-0.377,0.427-0.583,0.968-0.583,1.543c0,0.622,0.243,1.209,0.684,1.649l2.917,2.918c0.228,0.228,0.597,0.228,0.825,0
                  c0.228-0.229,0.228-0.599,0-0.827l-2.917-2.916c-0.221-0.22-0.342-0.513-0.342-0.824c0-0.313,0.121-0.604,0.341-0.824
                  c0.013-0.015,0.025-0.026,0.039-0.038l0.01-0.008c0.46-0.413,1.164-0.393,1.602,0.044l3.913,3.914
                  c0.331,0.329,0.513,0.77,0.513,1.237v3.433H9.399v-0.275c0-0.46-0.187-0.911-0.512-1.236L5.245,19.873z M15.233,28.701H8.232
                  v-2.507h7.001V28.701z"></path>
            <path d="M27.251,8.751C27.251,3.926,23.324,0,18.5,0c-4.825,0-8.751,3.926-8.751,8.751
                  c0,4.825,3.926,8.749,8.751,8.749C23.324,17.5,27.251,13.576,27.251,8.751z M18.5,16.335c-4.182,0-7.584-3.402-7.584-7.584
                  c0-4.182,3.402-7.584,7.584-7.584c4.183,0,7.584,3.402,7.584,7.584C26.084,12.933,22.683,16.335,18.5,16.335z"></path>
            <path d="M22.528,3.755c-1.518-1.226-3.505-1.688-5.45-1.269c-0.315,0.068-0.515,0.378-0.448,0.693
                  c0.068,0.315,0.378,0.515,0.694,0.447c1.598-0.345,3.229,0.033,4.471,1.036s1.955,2.493,1.955,4.088c0,2.895-2.356,5.25-5.251,5.25
                  c-2.895,0-5.25-2.355-5.25-5.25c0-0.865,0.214-1.722,0.62-2.479c0.153-0.284,0.046-0.638-0.238-0.79
                  c-0.284-0.152-0.638-0.046-0.79,0.238c-0.497,0.926-0.759,1.974-0.759,3.031c0,3.539,2.879,6.417,6.417,6.417
                  s6.417-2.878,6.417-6.417C24.917,6.802,24.046,4.98,22.528,3.755z"></path>
            </g>
            </svg>